<svg x="0" y="0" version="1.1" xmlns="http://www.w3.org/2000/svg" xmlns:xlink="http://www.w3.org/1999/xlink" viewBox="0 0 24 24" width="512" height="512" style="fill: rgb(255, 255, 255);"><g fill="none" stroke="none" stroke-width="1" stroke-linecap="butt" stroke-linejoin="miter" stroke-miterlimit="10" stroke-dasharray="" stroke-dashoffset="0" font-family="sans-serif" font-weight="normal" font-size="12" text-anchor="start" mix-blend-mode="normal"><g><g><path d="M0,24l0,-24l24,0l0,24z" fill="none"/><path d="M12,24c-6.62742,0 -12,-5.37258 -12,-12l0,0c0,-6.62742 5.37258,-12 12,-12l0,0c6.62742,0 12,5.37258 12,12l0,0c0,6.62742 -5.37258,12 -12,12z" fill="#00897b"/><g fill="#ffffff"><path d="M7.7875,6l0,2.4l0,0.31875l0.2625,0.1875l1.3875,0.91875l-1.35,-0.1875l-1.06875,-1.06875l-0.8625,0.8625l1.2,1.2l0.15,0.13125l0.1875,0.0375l1.3875,0.20625l-1.4625,0.4125l-0.15,0.05625l-0.1125,0.09375l-1.2,1.2l0.8625,0.8625l1.0875,-1.0875l1.3875,-0.39375l-2.1,1.8l-0.20625,0.16875l0,0.28125l0,3.6l1.2,0l0,-3.31875l1.36875,-1.18125c-0.11191,0.27659 -0.16875,0.58452 -0.16875,0.9l0,1.2c0,1.32 1.08,2.4 2.4,2.4c1.32,0 2.4,-1.08 2.4,-2.4l0,-1.2c0,-0.31548 -0.05684,-0.62341 -0.16875,-0.9l1.36875,1.18125l0,3.31875l1.2,0l0,-3.6l0,-0.28125l-0.20625,-0.16875l-2.04375,-1.7625l1.21875,0.35625l1.2375,1.10625l0.7875,-0.9l-1.35,-1.2l-0.09375,-0.09375l-0.13125,-0.0375l-1.4625,-0.4125l1.3875,-0.20625l0.16875,-0.0375l0.13125,-0.1125l1.35,-1.2l-0.7875,-0.9l-1.2,1.06875l-1.2,0.16875l1.33125,-0.88125l0.2625,-0.1875l0,-0.31875l0,-2.4l-1.2,0l0,2.0625l-1.8,1.2l0,-0.2625c0,-0.66 -0.54,-1.2 -1.2,-1.2c-0.66,0 -1.2,0.54 -1.2,1.2l0,0.2625l-1.8,-1.2l0,-2.0625z"/></g></g></g></g></svg>